# AST/ASF file generated using VICON BodyLanguage
# -----------------------------------------------
:version 1.10
:name VICON
:units
  mass 1.0
  length 0.45
  angle deg
:documentation
   .ast/.asf automatically generated from VICON data using
   VICON BodyBuilder and BodyLanguage model FoxedUp or BRILLIANT.MOD
:root
   order TX TY TZ RX RY RZ
   axis XYZ
   position 0 0 0  
   orientation 0 0 0 
:bonedata
  begin
     id 1 
     name lhipjoint
     direction 0.716248 -0.617586 0.324924 
     length 2.63557 
     axis 0 0 0  XYZ
  end
  begin
     id 2 
     name lfemur
     direction 0.34202 -0.939693 0  
     length 7.01235  
     axis 0 0 20  XYZ
    dof rx ry rz
    limits (-160.0 20.0)
           (-70.0 70.0)
           (-60.0 70.0)
  end
  begin
     id 3 
     name ltibia
     direction 0.34202 -0.939693 0   
     length 8.14348   
     axis 0 0 20   XYZ
    dof rx
    limits (-10.0 170.0)
  end
  begin
     id 4 
     name lfoot
     direction 0.0982064 -0.26982 0.95789   
     length 1.99077   
     axis -90 7.62852e-016 20   XYZ
    dof rx rz
    limits (-45.0 90.0)
           (-70.0 20.0)
  end
  begin
     id 5 
     name ltoes
     direction 1.53511e-011 -4.21891e-011 1   
     length 0.99735   
     axis -90 7.62852e-016 20   XYZ
    dof rx
    limits (-90.0 20.0)
  end
  begin
     id 6 
     name rhipjoint
     direction -0.687828 -0.642391 0.337975   
     length 2.5338  
     axis 0 0 0  XYZ 
  end
  begin
     id 7 
     name rfemur
     direction -0.34202 -0.939693 0   
     length 6.90199   
     axis 0 0 -20   XYZ
    dof rx ry rz
    limits (-160.0 20.0)
           (-70.0 70.0)
           (-70.0 60.0)
  end
  begin
     id 8 
     name rtibia
     direction -0.34202 -0.939693 0   
     length 8.07725   
     axis 0 0 -20   XYZ
    dof rx
    limits (-10.0 170.0)
 end
 begin
     id 9 
     name rfoot
     direction -0.0912384 -0.250675 0.963762   
     length 2.11621  
     axis -90 -7.62852e-016 -20   XYZ
    dof rx rz
    limits (-45.0 90.0)
           (-20.0 70.0)
  end
  begin
     id 10 
     name rtoes
     direction -1.5359e-011 -4.21894e-011 1   
     length 1.06031   
     axis -90 -7.62852e-016 -20   XYZ
    dof rx
    limits (-90.0 20.0)
  end
  begin
     id 11 
     name lowerback
     direction -0.0403572 0.987953 -0.149396   
     length 2.05637   
     axis 0 0 0   XYZ
    dof rx ry rz
    limits (-20.0 45.0)
           (-30.0 30.0)
           (-30.0 30.0)
  end
  begin
     id 12 
     name upperback
     direction -0.00512151 0.997598 0.0690792   
     length 2.01086   
     axis 0 0 0   XYZ
    dof rx ry rz
    limits (-20.0 45.0)
           (-30.0 30.0)
           (-30.0 30.0)
  end
  begin
     id 13 
     name thorax
     direction 0.0136133 0.989392 0.14463   
     length 2.09035   
     axis 0 0 0   XYZ
    dof rx ry rz
    limits (-20.0 45.0)
           (-30.0 30.0)
           (-30.0 30.0)
  end
  begin
     id 14 
     name lowerneck
     direction 0.0250714 0.992811 0.11704   
     length 1.70806   
     axis 0 0 0   XYZ
    dof rx ry rz
    limits (-20.0 45.0)
           (-30.0 30.0)
           (-30.0 30.0)
  end
  begin
     id 15 
     name upperneck
     direction -0.0519205 0.998394 -0.0226787   
     length 1.6689   
     axis 0 0 0   XYZ
    dof rx ry rz
    limits (-20.0 45.0)
           (-30.0 30.0)
           (-30.0 30.0)
  end
  begin
     id 16
     name head
     direction -0.0201693 0.999547 -0.0223192  
     length 1.83412  
     axis 0 0 0   XYZ
    dof rx ry rz
    limits (-20.0 45.0)
           (-30.0 30.0)
           (-30.0 30.0)
  end
  begin
     id 17 
     name lclavicle
     direction 0.89585 0.444077 -0.0157448  
     length 3.39587  
     axis 0 0 0   XYZ
    dof ry rz
    limits (-20.0 10.0)
           (0.0 20.0)
  end
  begin
     id 18 
     name lhumerus
     direction 1 -4.48956e-011 1.99132e-028   
     length 5.79199   
     axis 180 -30 -90   XYZ
    dof rx ry rz
    limits (-60.0 90.0)
           (-90.0 90.0)
           (-90.0 90.0)
  end
  begin
     id 19
     name lradius
     direction 1 -4.48974e-011 8.72912e-028   
     length 3.49908   
     axis 180 -30 -90   XYZ
    dof rx
    limits (-10.0 170.0)
  end
  begin
     id 20
     name lwrist
     direction 1 -4.48994e-011 4.76442e-027   
     length 1.74954   
     axis -3.27502e-015 90 90   XYZ
    dof ry
    limits (-180.0 0.0)
 end
  begin
     id 21 
     name lhand
     direction 1 -4.48945e-011 9.531e-027   
     length 0.593861   
     axis -6.08098e-015 90 90   XYZ
    dof rx rz
    limits (-90.0 90.0)
           (-45.0 45.0)
  end
  begin
     id 22 
     name lfingers
     direction 1 -4.48945e-011 1.9062e-026   
     length 0.478786   
     axis -1.21619e-014 90 90   XYZ
    dof rx
    limits (0.0 90.0)
  end
  begin
     id 23
     name lthumb
     direction 0.707107 -6.34904e-011 0.707107   
     length 0.687444   
     axis -90 45 -9.86923e-015   XYZ
    dof rx rz
    limits (-45.0 45.0)
           (-45.0 45.0)
  end
  begin
     id 24 
     name rclavicle
     direction -0.940466 0.338394 0.0318182   
     length 3.51226  
     axis 0 0 0   XYZ 
    dof ry rz
    limits (-10.0 20.0)
           (-20.0 0.0)
  end
  begin
     id 25 
     name rhumerus
     direction -1 -4.48976e-011 2.0905e-027  
     length 5.73799   
     axis 180 30 90   XYZ
    dof rx ry rz
    limits (-90.0 60.0)
           (-90.0 90.0)
           (-90.0 90.0)
  end
  begin
     id 26 
     name rradius
     direction -1 -4.48968e-011 -9.39692e-029   
     length 3.57916   
     axis 180 30 90   XYZ
    dof rx
    limits (-10.0 170.0)
  end
  begin
     id 27 
     name rwrist
     direction -1 -4.48959e-011 4.7652e-027   
     length 1.78958   
     axis -3.27502e-015 -90 -90   XYZ
    dof ry
    limits (-180.0 0.0)
  end
  begin
     id 28
     name rhand
     direction -1 -4.49042e-011 9.5267e-027   
     length 0.615577   
     axis -6.08098e-015 -90 -90   XYZ
    dof rx rz
    limits (-90.0 90.0)
           (-45.0 45.0)
  end
  begin
     id 29
     name rfingers
     direction -1 -4.48935e-011 1.90629e-026   
     length 0.496294   
     axis -1.21619e-014 -90 -90   XYZ
    dof rx
    limits (0.0 90.0)
  end
  begin
     id 30
     name rthumb
     direction -0.707107 -6.34977e-011 0.707107   
     length 0.712582   
     axis -90 -45 9.86923e-015   XYZ
    dof rx rz
    limits (-45.0 45.0)
           (-45.0 45.0)
  end
:hierarchy
  begin
    root lhipjoint rhipjoint lowerback
    lhipjoint lfemur
    lfemur ltibia
    ltibia lfoot
    lfoot ltoes
    rhipjoint rfemur
    rfemur rtibia
    rtibia rfoot
    rfoot rtoes
    lowerback upperback
    upperback thorax
    thorax lowerneck lclavicle rclavicle
    lowerneck upperneck
    upperneck head
    lclavicle lhumerus
    lhumerus lradius
    lradius lwrist
    lwrist lhand lthumb
    lhand lfingers
    rclavicle rhumerus
    rhumerus rradius
    rradius rwrist
    rwrist rhand rthumb
    rhand rfingers
  end

#!OML:ASF H:\Terrain\Patient Classification 1\PaulMetrics\March17Take5\PaulMetrics.ASF
:FULLY-SPECIFIED
:DEGREES
3914
root -5.20316 16.439 -24.3833 -706.983 -56.7449 352.553
lowerback 2.34184 1.659 -3.35102
upperback -3.81149 1.92975 -1.89912
thorax -5.3088 1.03457 -0.225627
lowerneck 0.149635 15.5073 6.82383
upperneck 1.65959 20.9142 -9.39559
head 2.39534 10.4008 -3.47564
rclavicle -5.32991e-014 1.90833e-014
rhumerus -50.3953 12.1079 -94.7918
rradius 35.7305
rwrist -14.964
rhand -17.4418 -37.0125
rfingers 7.12502
rthumb 8.80901 293.191
lclavicle -5.32991e-014 1.90833e-014
lhumerus -44.331 -8.09101 81.533
lradius 41.9098
lwrist 24.1163
lhand -22.0384 -26.8461
lfingers 7.12502
lthumb 4.37166 3.08881
rfemur -4.36421 -17.0154 22.282
rtibia 51.1023
rfoot 4.69299 -31.4174
rtoes -0.303888
lfemur -37.3576 13.3259 -32.1771
ltibia 38.1545
lfoot -17.3537 14.6777
ltoes 21.9204
3915
root -5.28622 16.4412 -24.3191 -707.63 -55.9769 353.203
lowerback 2.58106 1.65417 -3.55887
upperback -3.82236 1.89033 -2.0731
thorax -5.45864 1.02005 -0.295526
lowerneck 0.290957 15.3349 7.29437
upperneck 1.72142 20.7058 -9.65558
head 2.46545 10.3014 -3.65301
rclavicle 3.93097e-014 9.54166e-015
rhumerus -50.956 12.3211 -95.6233
rradius 36.654
rwrist -16.665
rhand -19.1325 -35.4286
rfingers 7.12502
rthumb 7.17721 294.713
lclavicle 3.93097e-014 9.54166e-015
lhumerus -43.8947 -8.11355 81.3087
lradius 41.137
lwrist 23.7768
lhand -21.5326 -26.6452
lfingers 7.12502
lthumb 4.86012 3.2791
rfemur -5.60676 -16.7737 21.8405
rtibia 53.3205
rfoot 7.08126 -29.5359
rtoes 1.10941
lfemur -36.9586 13.2978 -32.5627
ltibia 38.3657
lfoot -17.5627 14.1735
ltoes 21.5202
3916
root -5.36316 16.4259 -24.2521 -708.216 -55.1968 353.792
lowerback 2.7568 1.59341 -3.69543
upperback -3.80402 1.78712 -2.18124
thorax -5.53933 0.972234 -0.328991
lowerneck 0.195759 15.2987 7.33462
upperneck 1.87136 20.6585 -9.53569
head 2.51764 10.275 -3.60986
rclavicle 5.08392e-014 1.74931e-014
rhumerus -50.9756 11.9341 -95.4046
rradius 36.3898
rwrist -14.6823
rhand -17.7915 -32.6966
rfingers 7.12502
rthumb 8.47158 297.493
lclavicle 5.08392e-014 1.74931e-014
lhumerus -43.6253 -7.84997 81.127
lradius 40.6138
lwrist 23.4981
lhand -20.7241 -26.4732
lfingers 7.12502
lthumb 5.64077 3.43172
rfemur -6.91685 -16.6087 21.442
rtibia 55.5253
rfoot 9.15915 -26.3521
rtoes 1.19288
lfemur -36.4758 13.0525 -32.8854
ltibia 38.4644
lfoot -17.9652 13.6263
ltoes 21.9359
3917
root -5.439 16.418 -24.1827 -708.846 -54.3555 354.389
lowerback 2.98161 1.54943 -3.65633
upperback -3.77245 1.70526 -2.43267
thorax -5.62438 0.924031 -0.611579
lowerneck 0.11751 15.2218 7.45456
upperneck 1.89233 20.548 -9.41487
head 2.52668 10.2207 -3.58991
rclavicle 7.36746e-014 -7.95139e-015
rhumerus -51.0248 12.041 -95.956
rradius 36.4603
rwrist -14.6068
rhand -17.9072 -31.71
rfingers 7.12502
rthumb 8.35986 298.475
lclavicle 7.36746e-014 -7.95139e-015
lhumerus -43.2974 -7.95081 80.9123
lradius 40.0444
lwrist 23.2757
lhand -20.2317 -26.4935
lfingers 7.12502
lthumb 6.11612 3.39821
rfemur -8.19916 -16.4461 21.0474
rtibia 57.6936
rfoot 10.3242 -22.805
rtoes 1.67429
lfemur -35.8816 12.6558 -33.1512
ltibia 38.4387
lfoot -18.0879 13.2073
ltoes 21.1745
3918
root -5.51813 16.4253 -24.1122 -709.326 -53.5277 354.84
lowerback 3.11759 1.49148 -3.7026
upperback -3.71964 1.61344 -2.54944
thorax -5.64342 0.877356 -0.702482
lowerneck 0.378704 15.0832 7.65625
upperneck 1.66218 20.3813 -10.106
head 2.24926 10.1281 -3.49039
rclavicle -2.09221e-014 -6.36111e-015
rhumerus -51.1729 12.475 -96.544
rradius 36.7795
rwrist -14.9782
rhand -18.1663 -31.3532
rfingers 7.12502
rthumb 8.10986 298.822
lclavicle -2.09221e-014 -6.36111e-015
lhumerus -42.8463 -7.96828 80.8123
lradius 39.3965
lwrist 22.8562
lhand -19.991 -26.5087
lfingers 7.12502
lthumb 6.3485 3.37616
rfemur -9.50807 -16.0834 20.7356
rtibia 59.8191
rfoot 10.3176 -20.1183
rtoes -3.10622
lfemur -35.2273 12.3038 -33.3155
ltibia 38.3284
lfoot -18.1663 12.8276
ltoes 20.5814
3919
root -5.60067 16.4324 -24.0415 -710.113 -52.9318 355.606
lowerback 3.27716 1.39022 -4.21815
upperback -3.66786 1.44258 -2.50265
thorax -5.69473 0.81504 -0.356013
lowerneck 1.59378 14.6592 7.51388
upperneck 0.0421714 19.7797 -11.082
head 1.61093 9.88582 -3.95212
rclavicle 1.40069e-013 -1.11319e-014
rhumerus -51.1827 13.0505 -96.7806
rradius 36.9143
rwrist -14.5836
rhand -18.1786 -30.8486
rfingers 7.12502
rthumb 8.09799 299.327
lclavicle 1.40069e-013 -1.11319e-014
lhumerus -42.549 -7.30051 80.7109
lradius 39.0223
lwrist 22.5539
lhand -19.4538 -26.2274
lfingers 7.12502
lthumb 6.86711 3.64122
rfemur -10.7788 -15.4366 20.1653
rtibia 61.926
rfoot 9.94291 -18.2369
rtoes -7.35287
lfemur -34.4509 12.1251 -33.6961
ltibia 38.1905
lfoot -18.3179 12.4291
ltoes 20.9176
3920
root -5.67895 16.435 -23.9764 -710.895 -52.3735 356.349
lowerback 3.53599 1.34555 -4.72704
upperback -3.6439 1.33587 -2.48988
thorax -5.83104 0.784804 -0.0569153
lowerneck 2.04513 14.5495 7.31283
upperneck -0.407256 19.6167 -10.885
head 1.50144 9.83606 -4.37989
rclavicle -3.56073e-014 -7.95139e-015
rhumerus -51.2374 13.3691 -96.8999
rradius 37.1732
rwrist -14.164
rhand -17.8682 -30.9602
rfingers 7.12502
rthumb 8.39758 299.227
lclavicle -3.56073e-014 -7.95139e-015
lhumerus -42.3473 -6.80917 80.6589
lradius 38.8256
lwrist 22.4754
lhand -19.0208 -26.0369
lfingers 7.12502
lthumb 7.28509 3.81765
rfemur -12.1392 -14.6832 19.6406
rtibia 64.0103
rfoot 9.2037 -16.9418
rtoes -9.30041
lfemur -33.7132 11.9687 -34.1001
ltibia 38.0229
lfoot -18.2508 12.1904
ltoes 20.4864
3921
root -5.74754 16.4376 -23.9111 -710.881 -51.5441 356.33
lowerback 3.60379 1.29352 -4.61208
upperback -3.59024 1.27896 -2.39886
thorax -5.80958 0.754262 -0.0216312
lowerneck 1.99772 14.5454 7.0719
upperneck -0.451794 19.5982 -10.8394
head 1.46056 9.82587 -4.32652
rclavicle -1.19768e-014 -3.97569e-014
rhumerus -51.1564 13.5136 -96.8705
rradius 37.4413
rwrist -13.9266
rhand -17.5376 -31.1364
rfingers 7.12502
rthumb 8.71653 299.064
lclavicle -1.19768e-014 -3.97569e-014
lhumerus -42.0409 -6.83446 80.8247
lradius 38.7427
lwrist 22.4261
lhand -19.1284 -26.0601
lfingers 7.12502
lthumb 7.18124 3.79801
rfemur -13.7283 -14.0396 19.7726
rtibia 65.9698
rfoot 8.31758 -16.0362
rtoes -9.98105
lfemur -33.2363 11.4925 -34.0106
ltibia 37.8482
lfoot -18.2928 11.8688
ltoes 20.227
3922
root -5.81135 16.4413 -23.8395 -711.078 -50.7105 356.702
lowerback 3.54007 1.24044 -4.60902
upperback -3.51749 1.21613 -2.41211
thorax -5.69347 0.720788 -0.0282921
lowerneck 1.9249 14.4778 6.86185
upperneck -0.631538 19.4875 -10.9806
head 1.39686 9.77146 -4.34874
rclavicle -1.22253e-014 -2.54444e-014
rhumerus -50.8823 13.5684 -96.8145
rradius 37.4969
rwrist -13.595
rhand -17.3774 -30.956
rfingers 7.12502
rthumb 8.87113 299.251
lclavicle -1.22253e-014 -2.54444e-014
lhumerus -41.7836 -6.96317 81.0107
lradius 38.9772
lwrist 22.4049
lhand -19.3592 -25.812
lfingers 7.12502
lthumb 6.95842 4.05363
rfemur -15.3443 -13.3954 19.5976
rtibia 67.8428
rfoot 7.05151 -15.5075
rtoes -8.85632
lfemur -32.8062 10.8621 -34.1689
ltibia 37.6957
lfoot -18.6681 11.4033
ltoes 20.9834
